<?xml version="1.0" encoding="UTF-8" standalone="no"?>
<!-- Created with Inkscape (http://www.inkscape.org/) -->

<svg
   version="1.1"
   width="1"
   height="1"
   id="svg2"
   sodipodi:docname="suitsn.svg"
   inkscape:version="1.3.2 (091e20e, 2023-11-25, custom)"
   xmlns:inkscape="http://www.inkscape.org/namespaces/inkscape"
   xmlns:sodipodi="http://sodipodi.sourceforge.net/DTD/sodipodi-0.dtd"
   xmlns="http://www.w3.org/2000/svg"
   xmlns:svg="http://www.w3.org/2000/svg">
  <defs
     id="defs1" />
  <sodipodi:namedview
     id="namedview1"
     pagecolor="#ffffff"
     bordercolor="#666666"
     borderopacity="1.0"
     inkscape:showpageshadow="2"
     inkscape:pageopacity="0.0"
     inkscape:pagecheckerboard="0"
     inkscape:deskcolor="#d1d1d1"
     inkscape:zoom="256"
     inkscape:cx="0.49804688"
     inkscape:cy="0.49804688"
     inkscape:window-width="1920"
     inkscape:window-height="1027"
     inkscape:window-x="-8"
     inkscape:window-y="-8"
     inkscape:window-maximized="1"
     inkscape:current-layer="svg2" />
  <path
     id="spades"
     d="m 0.58333393,0.62220874 c 0.0166667,0.0444403 0.0833332,0.15555112 0.19999972,0.15555112 C 0.9333334,0.77775986 1,0.68887922 1,0.57776414 1,0.50000071 0.95700999,0.44873879 0.91666704,0.38887993 0.87369334,0.32514503 0.81035694,0.26824601 0.75000059,0.21110723 0.67257828,0.13779639 0.50000094,0 0.50000094,0 c 0,0 -0.1725805,0.1378021 -0.24999963,0.21110723 C 0.18964511,0.26824886 0.12630853,0.32513361 0.08333323,0.38887993 0.04299024,0.44873308 0,0.49999501 0,0.57776414 c 0,0.11111508 0.06666671,0.19999572 0.21666802,0.19999572 0.11666645,0 0.18333307,-0.11111508 0.19999969,-0.15555112 0.0166667,-0.0111315 0.0166667,0 0.0166667,0.0111315 C 0.41666771,0.72222084 0.41666771,0.74445532 0.40000121,0.8111158 0.38333451,0.87779054 0.33333451,1 0.33333451,1 0.41666771,0.9777656 0.58333415,0.9777656 0.66666736,1 c 0,0 -0.0499999,-0.12223229 -0.0666665,-0.18888421 -0.0166667,-0.0666748 -0.0166667,-0.0888806 -0.0333332,-0.17777556 0,-0.0111315 0,-0.0222202 0.0166663,-0.0111315 z" />
  <path
     id="hearts"
     d="m 0.48334899,0.20029541 c 0,-0.12260462 -0.0951667,-0.19979592019 -0.23309983,-0.19979592019 -0.13793298,0 -0.24974988131,0.0993907602 -0.24974988131,0.22199546019 5.8109131e-4,0.0106063 3.0301893e-4,0.0209919 0,0.0312181 0,0.0810115 0.0445693813,0.15957968 0.0832499713,0.23309526 0.03977724,0.0756001 0.09712887,0.14186252 0.15089057,0.20950821 0.0832704,0.10477527 0.26535917,0.30316257 0.26535917,0.30316257 0,0 0.18208881,-0.19838736 0.26535926,-0.30316257 0.0537617,-0.0676456 0.11111314,-0.13390808 0.15089056,-0.20950821 0.0386804,-0.0735156 0.0832497,-0.15208377 0.0832497,-0.23309526 -4.7291e-4,-0.0108161 -3.0976e-4,-0.0212519 0,-0.0312181 0,-0.12260462 -0.1118169,-0.22199546019 -0.24974992,-0.22199546019 -0.13793299,0 -0.2330999,0.0771913002 -0.2330999,0.19979592019 0,0.0221995 -0.0333,0.0221995 -0.0332997,0 z" />
  <path
     id="diamonds"
     d="m 0.49999907,4.9948981e-4 c 0,0 0.0998999,0.16649708019 0.21644989,0.27749370019 0.11654997,0.11099805 0.28304982,0.22199611 0.28304982,0.22199611 0,0 -0.16649988,0.1110009 -0.28304982,0.2219961 C 0.599899,0.83298203 0.49999907,0.9994791 0.49999907,0.9994791 c 0,0 -0.0999,-0.16649707 -0.21644991,-0.2774937 C 0.16699919,0.61098735 4.9927869e-4,0.4999893 4.9927869e-4,0.4999893 c 0,0 0.16649992131,-0.11100091 0.28304988131,-0.22199611 C 0.40009912,0.16699657 0.49999907,4.9948981e-4 0.49999907,4.9948981e-4" />
  <path
     id="clubs"
     d="m 0.58324902,0.62211884 c 0.0589542,0.0740585 0.15552365,0.12774251 0.25212381,0.10696869 0.0805722,-0.009195 0.15172415,-0.0732994 0.16097156,-0.15530932 0.016718,-0.0917179 -0.0241506,-0.19977115 -0.11625743,-0.2340074 -0.0706617,-0.028383 -0.15609689,-0.0231671 -0.21707871,0.0250898 -0.0252457,0.0112879 -0.0678955,0.069057 -0.084507,0.0393616 C 0.64281979,0.35614196 0.70560625,0.29055931 0.71620863,0.20760955 0.71964328,0.08470823 0.59464144,-0.01500068 0.47561759,0.00176773 0.36678506,0.01056729 0.26572112,0.1181918 0.28722388,0.22982066 c 0.0202968,0.0726189 0.0748205,0.13066799 0.134273,0.17439855 -0.0186738,0.0293812 -0.0623258,-0.0314153 -0.0897456,-0.0429394 -0.0896536,-0.0667373 -0.23488974,-0.0461486 -0.29716076,0.0482147 -0.05816454,0.0919419 -0.04514628,0.23869602 0.05666121,0.29485293 0.07788482,0.0417418 0.17877276,0.0386 0.25088803,-0.0143039 0.0348375,-0.0116452 0.0627875,-0.0746411 0.0909992,-0.0647939 -0.013346,0.10087042 -0.0309198,0.20268077 -0.0698301,0.29754446 -0.005306,0.0302727 -0.0572496,0.096894 0.004986,0.0694663 0.098693,-0.0133815 0.20060951,-0.0142996 0.29820397,0.007282 -0.0421322,-0.10165677 -0.0782717,-0.20655007 -0.091015,-0.31641603 0.001994,-0.0152112 -0.0266462,-0.0774505 0.007765,-0.0610071 z" />
</svg>
