<?xml version="1.0" encoding="UTF-8" standalone="no"?>
<!-- Created with Inkscape (http://www.inkscape.org/) -->

<svg
   version="1.1"
   width="1"
   height="1"
   id="svg2"
   sodipodi:docname="suit_clubs.svg"
   inkscape:version="1.3.2 (091e20e, 2023-11-25, custom)"
   xmlns:inkscape="http://www.inkscape.org/namespaces/inkscape"
   xmlns:sodipodi="http://sodipodi.sourceforge.net/DTD/sodipodi-0.dtd"
   xmlns="http://www.w3.org/2000/svg"
   xmlns:svg="http://www.w3.org/2000/svg">
  <defs
     id="defs1" />
  <sodipodi:namedview
     id="namedview1"
     pagecolor="#ffffff"
     bordercolor="#666666"
     borderopacity="1.0"
     inkscape:showpageshadow="2"
     inkscape:pageopacity="0.0"
     inkscape:pagecheckerboard="0"
     inkscape:deskcolor="#d1d1d1"
     inkscape:zoom="256"
     inkscape:cx="0.31640625"
     inkscape:cy="0.22851562"
     inkscape:window-width="1920"
     inkscape:window-height="1027"
     inkscape:window-x="-8"
     inkscape:window-y="-8"
     inkscape:window-maximized="1"
     inkscape:current-layer="svg2" />
  <path
     id="clubs"
     d="M 0.58324902,0.62211884 C 0.64220322,0.69617734 0.73877267,0.74986135 0.83537283,0.72908753 1.0422362,0.70548002 1.0499677,0.40291573 0.88008696,0.33977081 0.69307912,0.26465454 0.60476644,0.45117494 0.57850125,0.40422221 0.64281975,0.35614191 0.70560625,0.29055931 0.71620863,0.20760955 0.71964328,0.08470823 0.59464144,-0.01500068 0.47561759,0.00176773 0.36678506,0.01056729 0.26572112,0.1181918 0.28722388,0.22982066 c 0.0202968,0.0726189 0.0748205,0.13066799 0.134273,0.17439855 -0.0142477,0.0224172 -0.25448762,-0.19538737 -0.38690636,0.005275 -0.05816454,0.0919419 -0.04514628,0.23869602 0.05666121,0.29485293 0.18869577,0.10113012 0.3157802,-0.0882104 0.34188723,-0.0790978 0.006117,0.12809592 -0.0468331,0.26507052 -0.0648441,0.36701076 0.098693,-0.0133815 0.16935951,-0.0182058 0.26695397,0.003375 -0.035289,-0.0851454 -0.0713915,-0.38278333 -0.0519998,-0.37351676 z"
     style="fill:#000000;fill-opacity:1;stroke:none;stroke-width:0.05;stroke-dasharray:none;stroke-opacity:1"
     sodipodi:nodetypes="cccccccccccccc" />
</svg>
